<svg width="296" height="91" viewBox="0 0 296 91" fill="none" xmlns="http://www.w3.org/2000/svg">
<path d="M16.5 35.4C16.5 41.4667 17.6333 45.9667 19.9 48.9C22.2333 51.8333 25.1667 53.3 28.7 53.3C30.4333 53.3 32.0333 52.9333 33.5 52.2C34.9667 51.4667 36.4 50.3667 37.8 48.9V20.3C36.1333 18.9667 34.5667 18.0333 33.1 17.5C31.7 16.9667 30.3 16.7 28.9 16.7C25.4333 16.7 22.5 18.2333 20.1 21.3C17.7 24.3 16.5 29 16.5 35.4ZM23.9 60.4C19.9667 60.4 16.4667 59.4 13.4 57.4C10.4 55.4 8.03333 52.5667 6.3 48.9C4.56667 45.1667 3.7 40.7333 3.7 35.6C3.7 30.3333 4.66667 25.7667 6.6 21.9C8.6 18.0333 11.2333 15.0333 14.5 12.9C17.8333 10.7667 21.5 9.7 25.5 9.7C27.9 9.7 30.1667 10.2 32.3 11.2C34.5 12.1333 36.6333 13.7667 38.7 16.1L47.9 9.7L50.1 10.7L49.8 24.2V61.2C49.8 63.8 49.8 66.4 49.8 69C49.8667 71.6667 49.9333 74.3 50 76.9L56.6 78.2V82.3H30V78.2L37.9 76.7C37.9667 74.1 38 71.5 38 68.9C38.0667 66.3 38.1 63.7333 38.1 61.2V53.5C36.1667 55.9 34.0333 57.6667 31.7 58.8C29.3667 59.8667 26.7667 60.4 23.9 60.4ZM96.6336 59.9L95.8336 51.1C90.9669 57.3 85.3003 60.4 78.8336 60.4C74.7003 60.4 71.3669 59.0667 68.8336 56.4C66.3669 53.6667 65.1669 49 65.2336 42.4L65.6336 17.7L59.1336 16.3V12.4L76.6336 10.3L77.8336 11.4L77.3336 25.4V42C77.3336 45.7333 77.9003 48.3667 79.0336 49.9C80.2336 51.3667 81.9336 52.1 84.1336 52.1C86.0003 52.1 87.9003 51.5667 89.8336 50.5C91.8336 49.4333 93.7336 48.0667 95.5336 46.4L95.8336 17.7L89.5336 16.3V12.6L106.634 10.3L107.934 11.4L107.634 25.4V53.6L113.734 54.9V59L96.6336 59.9ZM143.12 14.5C141.52 14.5 139.92 15.0333 138.32 16.1C136.787 17.1 135.454 18.7667 134.32 21.1C133.254 23.4333 132.587 26.6 132.32 30.6H146.02C148.42 30.6 150.02 30.1 150.82 29.1C151.62 28.1 152.02 26.7 152.02 24.9C152.02 21.8333 151.154 19.3333 149.42 17.4C147.687 15.4667 145.587 14.5 143.12 14.5ZM143.12 60.4C138.454 60.4 134.354 59.4 130.82 57.4C127.287 55.4 124.52 52.5333 122.52 48.8C120.52 45 119.52 40.5 119.52 35.3C119.52 29.9667 120.654 25.4 122.92 21.6C125.254 17.7333 128.254 14.8 131.92 12.8C135.654 10.7333 139.62 9.7 143.82 9.7C147.754 9.7 151.187 10.5333 154.12 12.2C157.054 13.8667 159.32 16.2 160.92 19.2C162.587 22.2 163.42 25.7333 163.42 29.8C163.42 31.9333 163.22 33.7667 162.82 35.3H132.22C132.487 41.0333 133.987 45.3333 136.72 48.2C139.52 51.0667 143.02 52.5 147.22 52.5C150.154 52.5 152.62 51.9333 154.62 50.8C156.687 49.6 158.554 48.0667 160.22 46.2L163.12 48.8C161.187 52.4667 158.52 55.3333 155.12 57.4C151.787 59.4 147.787 60.4 143.12 60.4ZM169.685 59V55.3L196.585 15.5H179.585L176.885 26.6L170.285 26.2L171.085 11.1H210.085V14.8L183.585 54.6H201.785L204.685 42.5H211.285L210.285 59H169.685ZM254.781 60.2C252.115 60.2 249.948 59.5333 248.281 58.2C246.615 56.8667 245.481 55.0333 244.881 52.7C242.415 55.2333 240.181 57.1667 238.181 58.5C236.181 59.7667 233.581 60.4 230.381 60.4C226.648 60.4 223.481 59.3333 220.881 57.2C218.348 55 217.081 51.8667 217.081 47.8C217.081 45.6667 217.581 43.7 218.581 41.9C219.581 40.0333 221.348 38.3 223.881 36.7C226.481 35.1 230.181 33.5333 234.981 32C236.315 31.5333 237.815 31.0667 239.481 30.6C241.148 30.1333 242.848 29.6667 244.581 29.2V26.4C244.581 21.7333 243.915 18.6 242.581 17C241.315 15.3333 239.048 14.5 235.781 14.5C235.181 14.5 234.515 14.5333 233.781 14.6C233.115 14.6667 232.415 14.7667 231.681 14.9L230.481 20.4C230.215 22.8 229.515 24.5667 228.381 25.7C227.248 26.8333 225.848 27.4 224.181 27.4C220.981 27.4 219.115 25.9 218.581 22.9C219.181 18.9 221.315 15.7 224.981 13.3C228.715 10.9 233.615 9.7 239.681 9.7C245.481 9.7 249.715 11.1 252.381 13.9C255.048 16.6333 256.381 21.2667 256.381 27.8V49.6C256.381 52.6 257.348 54.1 259.281 54.1C260.548 54.1 261.715 53.3667 262.781 51.9L265.081 53.9C263.881 56.1667 262.448 57.8 260.781 58.8C259.181 59.7333 257.181 60.2 254.781 60.2ZM228.781 45.7C228.781 48.3 229.448 50.2 230.781 51.4C232.181 52.5333 233.881 53.1 235.881 53.1C237.015 53.1 238.148 52.8333 239.281 52.3C240.415 51.7667 242.181 50.6667 244.581 49V33.2C243.181 33.6667 241.848 34.1 240.581 34.5C239.381 34.9 238.348 35.2667 237.481 35.6C234.148 36.9333 231.848 38.4667 230.581 40.2C229.381 41.9333 228.781 43.7667 228.781 45.7Z" fill="black"/>
<circle cx="279.5" cy="34.5" r="11.5" fill="black"/>
</svg>
