<svg width="179" height="175" viewBox="0 0 179 175" fill="none" xmlns="http://www.w3.org/2000/svg">
<path d="M111.384 161.99C104.208 161.99 98.228 159.897 93.444 155.711C88.66 151.525 85.67 145.944 84.474 138.967C76.3013 146.94 69.1253 152.92 62.946 156.907C56.7667 160.894 49.2917 162.887 40.521 162.887C29.5577 162.887 20.0893 159.797 12.116 153.618C4.342 147.239 0.455001 137.871 0.455001 125.512C0.455001 119.731 1.75067 114.349 4.342 109.366C7.13267 104.383 12.116 99.499 19.292 94.715C26.468 89.931 36.7337 85.147 50.089 80.363C54.6737 78.7683 59.956 77.074 65.936 75.28C71.916 73.486 77.896 71.8913 83.876 70.496V63.021C83.876 48.4697 81.6833 38.802 77.298 34.018C72.9127 29.234 65.7367 26.842 55.77 26.842C53.5773 26.842 51.0857 26.9417 48.295 27.141C45.7037 27.3403 42.8133 27.8387 39.624 28.636L33.943 48.071C31.1523 57.639 25.9697 62.423 18.395 62.423C10.023 62.423 5.33867 58.3367 4.342 50.164C7.13267 38.802 13.7107 29.832 24.076 23.254C34.6407 16.4767 47.4977 13.088 62.647 13.088C78.3943 13.088 90.0553 17.0747 97.63 25.048C105.205 32.822 108.992 46.1773 108.992 65.114V128.801C108.992 135.18 109.989 139.764 111.982 142.555C113.975 145.146 116.567 146.442 119.756 146.442C122.347 146.442 124.54 145.844 126.334 144.648C128.128 143.452 129.822 141.857 131.417 139.864L137.397 146.442C133.809 152.223 129.822 156.309 125.437 158.701C121.251 160.894 116.567 161.99 111.384 161.99ZM27.066 121.027C27.066 129 29.3583 134.681 33.943 138.07C38.5277 141.459 44.2087 143.153 50.986 143.153C53.976 143.153 56.7667 142.754 59.358 141.957C62.1487 141.16 65.4377 139.665 69.225 137.472C73.0123 135.08 77.896 131.691 83.876 127.306V81.559C78.6933 82.9543 73.6103 84.549 68.627 86.343C63.6437 87.9377 59.5573 89.333 56.368 90.529C47.7967 93.9177 41.418 97.406 37.232 100.994C33.046 104.582 30.2553 108.07 28.86 111.459C27.664 114.848 27.066 118.037 27.066 121.027Z" fill="#000"/>
<circle cx="159" cy="87" r="20" fill="#000"/>
</svg>
