<svg width="250" height="214" viewBox="0 0 250 214" fill="none" xmlns="http://www.w3.org/2000/svg">
<path d="M85.8 2.99999C97.5333 2.99999 108.467 5.06666 118.6 9.2C128.733 13.3333 137.533 19 145 26.2C152.467 33.4 158.333 41.9333 162.6 51.8C166.867 61.5333 169 72.0667 169 83.4C169 95.9333 166.4 107.4 161.2 117.8C156.133 128.067 149.333 136.933 140.8 144.4C135.2 149.2 128.933 153.267 122 156.6C115.067 159.8 107.8 162.8 100.2 165.6C96.6 167.067 93.0667 168.6 89.6 170.2C86.2667 171.8 83.2 173.667 80.4 175.8V176.6C81.2 176.467 82.2667 176.333 83.6 176.2C85.0667 176.2 86.3333 176.2 87.4 176.2C93.4 176.2 99 176.933 104.2 178.4C109.4 180 114.467 181.733 119.4 183.6C124.333 185.6 129.267 187.333 134.2 188.8C139.133 190.4 144.333 191.2 149.8 191.2C156.067 191.2 160.8 189.867 164 187.2C167.2 184.533 169.8 179.933 171.8 173.4H176.8C177.067 174.6 177.267 175.933 177.4 177.4C177.533 178.867 177.6 180.333 177.6 181.8C177.6 186.067 176.667 189.933 174.8 193.4C173.067 197 170.6 200.067 167.4 202.6C164.333 205.267 160.667 207.333 156.4 208.8C152.133 210.267 147.533 211 142.6 211C135.133 211 128.2 209.533 121.8 206.6C115.533 203.8 109.533 200.667 103.8 197.2C98.2 193.867 92.8 190.733 87.6 187.8C82.4 185 77.2667 183.6 72.2 183.6C68.7333 183.6 65.9333 184.267 63.8 185.6C61.6667 186.933 59.7333 188.4 58 190C56.2667 191.733 54.6 193.267 53 194.6C51.5333 195.933 49.6667 196.6 47.4 196.6C43.5333 196.6 41.6 194.933 41.6 191.6C41.6 190.667 41.7333 189.867 42 189.2C42.2667 188.533 42.8 187.733 43.6 186.8C44.5333 186 45.8667 185 47.6 183.8C49.3333 182.733 51.7333 181.333 54.8 179.6L80.8 164.8C69.6 164.4 59.2 162.067 49.6 157.8C40 153.4 31.7333 147.6 24.8 140.4C17.8667 133.067 12.4 124.6 8.4 115C4.53333 105.267 2.6 94.8667 2.6 83.8C2.6 72.3333 4.73333 61.6667 9 51.8C13.2667 41.9333 19.1333 33.4 26.6 26.2C34.0667 19 42.8667 13.3333 53 9.2C63.1333 5.06666 74.0667 2.99999 85.8 2.99999ZM85.8 155C94.6 155 102.467 153.333 109.4 150C116.467 146.667 122.467 141.933 127.4 135.8C132.467 129.533 136.333 122.067 139 113.4C141.667 104.6 143 94.7333 143 83.8C143 73.1333 141.667 63.5333 139 55C136.333 46.3333 132.533 39 127.6 33C122.667 26.8667 116.667 22.2 109.6 19C102.533 15.6667 94.6 14 85.8 14C77 14 69.0667 15.6667 62 19C54.9333 22.2 48.9333 26.8667 44 33C39.0667 39 35.2667 46.3333 32.6 55C29.9333 63.5333 28.6 73.1333 28.6 83.8C28.6 94.7333 29.9333 104.6 32.6 113.4C35.2667 122.067 39.0667 129.533 44 135.8C48.9333 141.933 54.9333 146.667 62 150C69.0667 153.333 77 155 85.8 155Z" fill="black"/>
<path d="M228.9 129.4C225.1 130.867 221.867 132.3 219.2 133.7C216.6 135.1 214.5 136.5 212.9 137.9C211.3 139.3 210.133 140.7 209.4 142.1C208.733 143.5 208.4 144.933 208.4 146.4C208.4 148.6 209.133 150.4 210.6 151.8C212.067 153.2 214 153.9 216.4 153.9C218.133 153.9 219.733 153.467 221.2 152.6C222.733 151.733 224.067 150.567 225.2 149.1C226.333 147.567 227.233 145.8 227.9 143.8C228.567 141.733 228.9 139.567 228.9 137.3V129.4ZM228.9 125.1V121C228.9 112.867 225.433 108.8 218.5 108.8C217.367 108.8 216.4 108.9 215.6 109.1C214.8 109.3 214.133 109.633 213.6 110.1C213.067 110.567 212.567 111.233 212.1 112.1C211.7 112.967 211.3 114.033 210.9 115.3C210.167 117.233 209.433 118.533 208.7 119.2C208.033 119.8 207.033 120.1 205.7 120.1C202.367 120.1 200.7 118.433 200.7 115.1C200.7 111.9 202.4 109.433 205.8 107.7C209.2 105.9 214.033 105 220.3 105C226.967 105 231.7 106.2 234.5 108.6C237.3 110.933 238.7 114.933 238.7 120.6V143C238.7 150.6 240.2 154.4 243.2 154.4C244.133 154.4 245.033 154.3 245.9 154.1C246.767 153.833 247.5 153.2 248.1 152.2L249.5 154.6C248.7 156.133 247.233 157.433 245.1 158.5C242.967 159.5 240.733 160 238.4 160C235.467 160 233.267 159.067 231.8 157.2C230.4 155.333 229.7 152.7 229.7 149.3H229.2C227.467 152.567 225.067 155.167 222 157.1C218.933 158.967 215.533 159.9 211.8 159.9C207.6 159.9 204.3 158.833 201.9 156.7C199.5 154.567 198.3 151.7 198.3 148.1C198.3 146.5 198.567 144.967 199.1 143.5C199.7 142.033 200.633 140.633 201.9 139.3C203.167 137.967 204.833 136.667 206.9 135.4C208.967 134.067 211.5 132.733 214.5 131.4L228.9 125.1Z" fill="black"/>
</svg>
