<svg width="194" height="190" viewBox="0 0 194 190" fill="none" xmlns="http://www.w3.org/2000/svg">
<path d="M141.6 151.6L144.6 152.8C143 158.267 141.133 162.8 139 166.4C137 170.133 134.667 173.2 132 175.6C129.467 177.867 126 179.933 121.6 181.8C117.333 183.667 111.8 184.6 105 184.6C97.9333 184.6 91.0667 183.4 84.4 181C77.8667 178.733 71.0667 175.933 64 172.6C56.9333 169.267 49.1333 166.2 40.6 163.4C39.6667 163.133 38.8 162.867 38 162.6C37.2 162.333 36.4667 162.133 35.8 162C33.2667 162.933 30.5333 163.667 27.6 164.2C24.6667 164.733 21.8667 165 19.2 165C16.5333 165 14.3333 164.667 12.6 164C10.8667 163.333 10 162.333 10 161C10 158.2 13.6 156.8 20.8 156.8C25.4667 156.8 30.4667 157.333 35.8 158.4C40.6 157.067 44.7333 155.533 48.2 153.8C51.6667 152.2 55.2 150.667 58.8 149.2C62.5333 147.733 67 146.8 72.2 146.4L72.4 149.6C68.4 150 64.9333 150.733 62 151.8C59.0667 153 56.1333 154.267 53.2 155.6C50.2667 156.933 46.8 158.2 42.8 159.4C49.4667 160.733 56.7333 162.133 64.6 163.6C72.4667 165.067 80.0667 166.333 87.4 167.4C94.7333 168.467 101 169 106.2 169C115.8 169 123.333 167.6 128.8 164.8C134.4 162 138.667 157.6 141.6 151.6ZM66.2 2.59999C78.8667 2.59999 89.9333 5.46666 99.4 11.2C109 16.9333 116.4 25.2 121.6 36C126.933 46.6667 129.6 59.6667 129.6 75C129.6 89.9333 126.867 103 121.4 114.2C116.067 125.4 108.6 134.133 99 140.4C89.4 146.667 78.4 149.8 66 149.8C53.3333 149.8 42.2 146.933 32.6 141.2C23.1333 135.467 15.7333 127.2 10.4 116.4C5.2 105.6 2.6 92.6 2.6 77.4C2.6 62.4667 5.33333 49.4 10.8 38.2C16.2667 27 23.7333 18.2667 33.2 12C42.8 5.73332 53.8 2.59999 66.2 2.59999ZM65.4 6.19999C56.7333 6.19999 49.2 9.19999 42.8 15.2C36.4 21.2 31.4 29.4667 27.8 40C24.3333 50.5333 22.6 62.7333 22.6 76.6C22.6 90.7333 24.5333 103.067 28.4 113.6C32.4 124 37.7333 132.067 44.4 137.8C51.2 143.4 58.6667 146.2 66.8 146.2C75.4667 146.2 83 143.2 89.4 137.2C95.8 131.2 100.733 122.933 104.2 112.4C107.8 101.733 109.6 89.5333 109.6 75.8C109.6 61.5333 107.6 49.2 103.6 38.8C99.7333 28.4 94.4667 20.4 87.8 14.8C81.1333 9.06666 73.6667 6.19999 65.4 6.19999Z" fill="black"/>
<path d="M172.9 108.4C169.1 109.867 165.867 111.3 163.2 112.7C160.6 114.1 158.5 115.5 156.9 116.9C155.3 118.3 154.133 119.7 153.4 121.1C152.733 122.5 152.4 123.933 152.4 125.4C152.4 127.6 153.133 129.4 154.6 130.8C156.067 132.2 158 132.9 160.4 132.9C162.133 132.9 163.733 132.467 165.2 131.6C166.733 130.733 168.067 129.567 169.2 128.1C170.333 126.567 171.233 124.8 171.9 122.8C172.567 120.733 172.9 118.567 172.9 116.3V108.4ZM172.9 104.1V100C172.9 91.8667 169.433 87.8 162.5 87.8C161.367 87.8 160.4 87.9 159.6 88.1C158.8 88.3 158.133 88.6333 157.6 89.1C157.067 89.5667 156.567 90.2333 156.1 91.1C155.7 91.9667 155.3 93.0333 154.9 94.3C154.167 96.2333 153.433 97.5333 152.7 98.2C152.033 98.8 151.033 99.1 149.7 99.1C146.367 99.1 144.7 97.4333 144.7 94.1C144.7 90.9 146.4 88.4333 149.8 86.7C153.2 84.9 158.033 84 164.3 84C170.967 84 175.7 85.2 178.5 87.6C181.3 89.9333 182.7 93.9333 182.7 99.6V122C182.7 129.6 184.2 133.4 187.2 133.4C188.133 133.4 189.033 133.3 189.9 133.1C190.767 132.833 191.5 132.2 192.1 131.2L193.5 133.6C192.7 135.133 191.233 136.433 189.1 137.5C186.967 138.5 184.733 139 182.4 139C179.467 139 177.267 138.067 175.8 136.2C174.4 134.333 173.7 131.7 173.7 128.3H173.2C171.467 131.567 169.067 134.167 166 136.1C162.933 137.967 159.533 138.9 155.8 138.9C151.6 138.9 148.3 137.833 145.9 135.7C143.5 133.567 142.3 130.7 142.3 127.1C142.3 125.5 142.567 123.967 143.1 122.5C143.7 121.033 144.633 119.633 145.9 118.3C147.167 116.967 148.833 115.667 150.9 114.4C152.967 113.067 155.5 111.733 158.5 110.4L172.9 104.1Z" fill="black"/>
</svg>
